<mxfile host="Electron" modified="2024-01-31T18:37:14.352Z" agent="Mozilla/5.0 (Windows NT 10.0; Win64; x64) AppleWebKit/537.36 (KHTML, like Gecko) draw.io/23.0.2 Chrome/120.0.6099.109 Electron/28.1.0 Safari/537.36" etag="1olnWSglHkg0-ba7KRSH" version="23.0.2" type="device">
  <diagram name="Page-1" id="bfe91b75-5d2c-26a0-9c1d-138518896778">
    <mxGraphModel dx="3771" dy="3025" grid="1" gridSize="10" guides="1" tooltips="1" connect="1" arrows="1" fold="1" page="1" pageScale="1" pageWidth="1100" pageHeight="850" background="none" math="0" shadow="0">
      <root>
        <mxCell id="0" />
        <mxCell id="1" parent="0" />
        <mxCell id="7c3789c024ecab99-79" value="" style="rounded=1;whiteSpace=wrap;html=1;shadow=0;comic=0;strokeColor=#036897;strokeWidth=2;fillColor=none;fontFamily=Verdana;fontSize=28;fontColor=#6881B3;align=center;arcSize=11;verticalAlign=top;" parent="1" vertex="1">
          <mxGeometry x="30" y="31" width="1065" height="409" as="geometry" />
        </mxCell>
        <mxCell id="7c3789c024ecab99-18" style="edgeStyle=orthogonalEdgeStyle;html=1;labelBackgroundColor=none;endArrow=none;endFill=0;strokeWidth=2;fontFamily=Verdana;fontSize=15;fontColor=#036897;fillColor=#f8cecc;strokeColor=#b85450;exitX=1.004;exitY=0.721;exitDx=0;exitDy=0;exitPerimeter=0;" parent="1" source="7c3789c024ecab99-9" target="7c3789c024ecab99-10" edge="1">
          <mxGeometry relative="1" as="geometry">
            <mxPoint x="1110" y="310" as="targetPoint" />
            <Array as="points">
              <mxPoint x="663" y="890" />
            </Array>
          </mxGeometry>
        </mxCell>
        <mxCell id="7c3789c024ecab99-10" value="" style="fontColor=#0066CC;verticalAlign=top;verticalLabelPosition=bottom;labelPosition=center;align=center;html=1;fillColor=#CCCCCC;strokeColor=#6881B3;gradientColor=none;gradientDirection=north;strokeWidth=2;shape=mxgraph.networks.router;rounded=0;shadow=0;comic=0;" parent="1" vertex="1">
          <mxGeometry x="1300" y="882" width="100" height="30" as="geometry" />
        </mxCell>
        <mxCell id="7c3789c024ecab99-9" value="" style="fontColor=#0066CC;verticalAlign=top;verticalLabelPosition=bottom;labelPosition=center;align=center;html=1;fillColor=#CCCCCC;strokeColor=#6881B3;gradientColor=none;gradientDirection=north;strokeWidth=2;shape=mxgraph.networks.wireless_hub;rounded=0;shadow=0;comic=0;" parent="1" vertex="1">
          <mxGeometry x="562.5" y="820" width="100" height="90" as="geometry" />
        </mxCell>
        <mxCell id="7c3789c024ecab99-53" value="Internet" style="html=1;fillColor=#FFFFFF;strokeColor=#67AB9F;gradientColor=none;gradientDirection=north;strokeWidth=2;shape=mxgraph.networks.cloud;fontColor=#6881B3;rounded=0;shadow=0;comic=0;align=center;fontSize=28;" parent="1" vertex="1">
          <mxGeometry x="1830" y="60" width="330" height="140" as="geometry" />
        </mxCell>
        <mxCell id="3UDE3XpyQAjiO2V0nQBB-2" value="Netgear GS108LP&lt;br&gt;unmanaged" style="text;html=1;align=center;verticalAlign=middle;resizable=0;points=[];autosize=1;strokeColor=none;fillColor=none;fontSize=25;fontColor=#006680;" parent="1" vertex="1">
          <mxGeometry x="1220" y="920" width="230" height="70" as="geometry" />
        </mxCell>
        <mxCell id="3UDE3XpyQAjiO2V0nQBB-6" value="WAN&lt;br&gt;1000/500&lt;br&gt;Mbps ETTH" style="text;html=1;align=center;verticalAlign=middle;resizable=0;points=[];autosize=1;strokeColor=none;fillColor=none;fontSize=25;fontColor=#006680;" parent="1" vertex="1">
          <mxGeometry x="2000" y="379" width="160" height="100" as="geometry" />
        </mxCell>
        <mxCell id="3UDE3XpyQAjiO2V0nQBB-7" value="Proxmox VE&amp;nbsp;&lt;br&gt;AMD R5 5600G, 48GB, 2.25TB&lt;br&gt;10.10.1.10" style="text;html=1;align=center;verticalAlign=middle;resizable=0;points=[];autosize=1;strokeColor=none;fillColor=none;fontSize=25;fontColor=#006680;" parent="1" vertex="1">
          <mxGeometry x="575" y="70" width="370" height="100" as="geometry" />
        </mxCell>
        <mxCell id="3UDE3XpyQAjiO2V0nQBB-8" style="edgeStyle=orthogonalEdgeStyle;html=1;labelBackgroundColor=none;endArrow=none;endFill=0;strokeWidth=2;fontFamily=Verdana;fontSize=15;fontColor=#036897;fillColor=#d5e8d4;strokeColor=#82b366;startArrow=none;exitX=0.98;exitY=0.94;exitDx=0;exitDy=0;exitPerimeter=0;" parent="1" source="7c3789c024ecab99-9" edge="1">
          <mxGeometry relative="1" as="geometry">
            <mxPoint x="1300" y="900" as="targetPoint" />
            <Array as="points">
              <mxPoint x="661" y="900" />
            </Array>
            <mxPoint x="820" y="1260" as="sourcePoint" />
          </mxGeometry>
        </mxCell>
        <mxCell id="3UDE3XpyQAjiO2V0nQBB-11" value="" style="fontColor=#0066CC;verticalAlign=top;verticalLabelPosition=bottom;labelPosition=center;align=center;html=1;outlineConnect=0;fillColor=#CCCCCC;strokeColor=#6881B3;gradientColor=none;gradientDirection=north;strokeWidth=2;shape=mxgraph.networks.server;fontSize=25;" parent="1" vertex="1">
          <mxGeometry x="950" y="90" width="90" height="100" as="geometry" />
        </mxCell>
        <mxCell id="3UDE3XpyQAjiO2V0nQBB-12" style="edgeStyle=orthogonalEdgeStyle;html=1;labelBackgroundColor=none;endArrow=none;endFill=0;strokeWidth=2;fontFamily=Verdana;fontSize=15;fontColor=#036897;fillColor=#f8cecc;strokeColor=#b85450;" parent="1" source="3UDE3XpyQAjiO2V0nQBB-11" target="3UDE3XpyQAjiO2V0nQBB-30" edge="1">
          <mxGeometry relative="1" as="geometry">
            <mxPoint x="1350" y="880" as="targetPoint" />
            <Array as="points">
              <mxPoint x="1350" y="140" />
              <mxPoint x="1350" y="300" />
            </Array>
            <mxPoint x="856.8600000000005" y="487" as="sourcePoint" />
          </mxGeometry>
        </mxCell>
        <mxCell id="3UDE3XpyQAjiO2V0nQBB-13" style="edgeStyle=orthogonalEdgeStyle;html=1;labelBackgroundColor=none;endArrow=none;endFill=0;strokeWidth=2;fontFamily=Verdana;fontSize=15;fontColor=#036897;fillColor=#d5e8d4;strokeColor=#82b366;" parent="1" source="3UDE3XpyQAjiO2V0nQBB-11" edge="1">
          <mxGeometry relative="1" as="geometry">
            <mxPoint x="1360" y="310" as="targetPoint" />
            <Array as="points">
              <mxPoint x="1340" y="150" />
            </Array>
            <mxPoint x="830.0600000000003" y="483.595" as="sourcePoint" />
          </mxGeometry>
        </mxCell>
        <mxCell id="3UDE3XpyQAjiO2V0nQBB-18" value="" style="endArrow=none;html=1;rounded=0;fontSize=25;fontColor=#FF6666;exitX=0.384;exitY=-0.001;exitDx=0;exitDy=0;exitPerimeter=0;strokeWidth=2;" parent="1" source="3UDE3XpyQAjiO2V0nQBB-20" edge="1">
          <mxGeometry width="50" height="50" relative="1" as="geometry">
            <mxPoint x="1910" y="460" as="sourcePoint" />
            <mxPoint x="1994.77" y="200" as="targetPoint" />
          </mxGeometry>
        </mxCell>
        <mxCell id="3UDE3XpyQAjiO2V0nQBB-19" value="" style="endArrow=none;html=1;rounded=0;fontSize=25;fontColor=#FF6666;strokeWidth=2;exitX=0.394;exitY=0;exitDx=0;exitDy=0;exitPerimeter=0;" parent="1" source="3UDE3XpyQAjiO2V0nQBB-20" edge="1">
          <mxGeometry width="50" height="50" relative="1" as="geometry">
            <mxPoint x="2005" y="630" as="sourcePoint" />
            <mxPoint x="2004.77" y="200" as="targetPoint" />
          </mxGeometry>
        </mxCell>
        <mxCell id="3UDE3XpyQAjiO2V0nQBB-20" value="" style="rounded=1;whiteSpace=wrap;html=1;strokeColor=#ACED87;fontSize=25;fontColor=#FF6666;strokeWidth=2;fillColor=none;" parent="1" vertex="1">
          <mxGeometry x="1650" y="640" width="900" height="440" as="geometry" />
        </mxCell>
        <mxCell id="3UDE3XpyQAjiO2V0nQBB-22" value="&lt;font style=&quot;font-size: 25px;&quot;&gt;&lt;font color=&quot;#006680&quot;&gt;Proxmox VE&lt;br&gt;&lt;/font&gt;&lt;/font&gt;&lt;font color=&quot;#006680&quot; style=&quot;font-size: 25px;&quot;&gt;I5-8500, 16GB, 500GB&lt;br&gt;10.10.1.20&lt;br&gt;&lt;/font&gt;" style="text;html=1;align=center;verticalAlign=middle;resizable=0;points=[];autosize=1;strokeColor=none;fillColor=none;" parent="1" vertex="1">
          <mxGeometry x="2120" y="680" width="280" height="100" as="geometry" />
        </mxCell>
        <mxCell id="3UDE3XpyQAjiO2V0nQBB-26" value="" style="endArrow=none;html=1;rounded=0;fontSize=25;fontColor=#FF6666;entryX=1;entryY=0.5;entryDx=0;entryDy=0;entryPerimeter=0;fillColor=#f8cecc;strokeColor=#B85450;strokeWidth=2;exitX=-0.002;exitY=0.584;exitDx=0;exitDy=0;exitPerimeter=0;" parent="1" source="3UDE3XpyQAjiO2V0nQBB-20" target="7c3789c024ecab99-10" edge="1">
          <mxGeometry width="50" height="50" relative="1" as="geometry">
            <mxPoint x="1650" y="900" as="sourcePoint" />
            <mxPoint x="1640.0000000000005" y="390" as="targetPoint" />
          </mxGeometry>
        </mxCell>
        <mxCell id="3UDE3XpyQAjiO2V0nQBB-27" value="" style="endArrow=none;html=1;rounded=0;fontSize=25;fontColor=#FF6666;exitX=-0.001;exitY=0.766;exitDx=0;exitDy=0;exitPerimeter=0;entryX=1;entryY=0.5;entryDx=0;entryDy=0;entryPerimeter=0;fillColor=#d5e8d4;strokeColor=#82B366;strokeWidth=2;" parent="1" edge="1">
          <mxGeometry width="50" height="50" relative="1" as="geometry">
            <mxPoint x="1649.52" y="890.0000000000001" as="sourcePoint" />
            <mxPoint x="1400" y="890.39" as="targetPoint" />
          </mxGeometry>
        </mxCell>
        <mxCell id="3UDE3XpyQAjiO2V0nQBB-29" value="&lt;font color=&quot;#006680&quot;&gt;Ubiquiti U6 PRO&lt;br&gt;10.10.1.81&lt;br&gt;&lt;/font&gt;" style="text;html=1;align=center;verticalAlign=middle;resizable=0;points=[];autosize=1;strokeColor=none;fillColor=none;fontSize=25;fontColor=#93D194;" parent="1" vertex="1">
          <mxGeometry x="505" y="920" width="210" height="70" as="geometry" />
        </mxCell>
        <mxCell id="3UDE3XpyQAjiO2V0nQBB-30" value="" style="fontColor=#0066CC;verticalAlign=top;verticalLabelPosition=bottom;labelPosition=center;align=center;html=1;outlineConnect=0;fillColor=#CCCCCC;strokeColor=#6881B3;gradientColor=none;gradientDirection=north;strokeWidth=2;shape=mxgraph.networks.hub;fontSize=25;" parent="1" vertex="1">
          <mxGeometry x="1360" y="290" width="100" height="30" as="geometry" />
        </mxCell>
        <mxCell id="3UDE3XpyQAjiO2V0nQBB-32" style="edgeStyle=orthogonalEdgeStyle;html=1;labelBackgroundColor=none;endArrow=none;endFill=0;strokeWidth=2;fontFamily=Verdana;fontSize=15;fontColor=#036897;fillColor=#f8cecc;strokeColor=#B85450;entryX=0.5;entryY=-0.029;entryDx=0;entryDy=0;entryPerimeter=0;" parent="1" source="3UDE3XpyQAjiO2V0nQBB-30" edge="1">
          <mxGeometry relative="1" as="geometry">
            <mxPoint x="1390" y="881.9099999999999" as="targetPoint" />
            <Array as="points">
              <mxPoint x="1390" y="460" />
              <mxPoint x="1390" y="460" />
            </Array>
            <mxPoint x="1080" y="140.78" as="sourcePoint" />
          </mxGeometry>
        </mxCell>
        <mxCell id="3UDE3XpyQAjiO2V0nQBB-33" style="edgeStyle=orthogonalEdgeStyle;html=1;labelBackgroundColor=none;endArrow=none;endFill=0;strokeWidth=2;fontFamily=Verdana;fontSize=15;fontColor=#036897;fillColor=#d5e8d4;strokeColor=#82B366;entryX=0.4;entryY=-0.026;entryDx=0;entryDy=0;entryPerimeter=0;" parent="1" source="3UDE3XpyQAjiO2V0nQBB-30" edge="1">
          <mxGeometry relative="1" as="geometry">
            <mxPoint x="1380" y="882" as="targetPoint" />
            <Array as="points">
              <mxPoint x="1380" y="460" />
              <mxPoint x="1380" y="460" />
            </Array>
            <mxPoint x="1080" y="150.78" as="sourcePoint" />
          </mxGeometry>
        </mxCell>
        <mxCell id="3UDE3XpyQAjiO2V0nQBB-34" value="Ubiquiti Flex Mini&lt;br&gt;10.10.1.80" style="text;html=1;align=center;verticalAlign=middle;resizable=0;points=[];autosize=1;strokeColor=none;fillColor=none;fontSize=25;fontColor=#006680;" parent="1" vertex="1">
          <mxGeometry x="1370" y="215" width="210" height="70" as="geometry" />
        </mxCell>
        <mxCell id="3UDE3XpyQAjiO2V0nQBB-35" value="PoE" style="text;html=1;align=center;verticalAlign=middle;resizable=0;points=[];autosize=1;strokeColor=none;fillColor=none;fontSize=25;fontColor=#006680;" parent="1" vertex="1">
          <mxGeometry x="950" y="840" width="70" height="40" as="geometry" />
        </mxCell>
        <mxCell id="3UDE3XpyQAjiO2V0nQBB-38" value="&lt;font style=&quot;font-size: 20px;&quot;&gt;IoT WiFi&lt;br&gt;Optimized for IoT Usage&lt;br&gt;2.4GHz 20MHz&lt;br&gt;&lt;/font&gt;" style="rounded=1;whiteSpace=wrap;html=1;fontSize=25;strokeColor=#FF6666;" parent="1" vertex="1">
          <mxGeometry x="380" y="990" width="230" height="170" as="geometry" />
        </mxCell>
        <mxCell id="3UDE3XpyQAjiO2V0nQBB-39" value="&lt;font style=&quot;font-size: 20px;&quot;&gt;&lt;font color=&quot;#000000&quot;&gt;User WiFi&lt;br&gt;Optimized for throughput&lt;br&gt;5GHz 80MHz&lt;br&gt;2.4GHz 20MHz&lt;br&gt;5GHz prioritized&lt;/font&gt;&lt;br&gt;&lt;/font&gt;" style="rounded=1;whiteSpace=wrap;html=1;strokeColor=#ACED87;fontSize=25;fontColor=#006680;" parent="1" vertex="1">
          <mxGeometry x="630" y="990" width="230" height="170" as="geometry" />
        </mxCell>
        <mxCell id="3UDE3XpyQAjiO2V0nQBB-40" value="" style="fontColor=#0066CC;verticalAlign=top;verticalLabelPosition=bottom;labelPosition=center;align=center;html=1;outlineConnect=0;fillColor=#CCCCCC;strokeColor=#6881B3;gradientColor=none;gradientDirection=north;strokeWidth=2;shape=mxgraph.networks.virtual_server;fontSize=20;" parent="1" vertex="1">
          <mxGeometry x="1700" y="680" width="110" height="120" as="geometry" />
        </mxCell>
        <mxCell id="3UDE3XpyQAjiO2V0nQBB-43" value="" style="fontColor=#0066CC;verticalAlign=top;verticalLabelPosition=bottom;labelPosition=center;align=center;html=1;outlineConnect=0;fillColor=#CCCCCC;strokeColor=#6881B3;gradientColor=none;gradientDirection=north;strokeWidth=2;shape=mxgraph.networks.virtual_server;fontSize=25;" parent="1" vertex="1">
          <mxGeometry x="2120" y="890" width="110" height="120" as="geometry" />
        </mxCell>
        <mxCell id="3UDE3XpyQAjiO2V0nQBB-44" value="" style="fontColor=#0066CC;verticalAlign=top;verticalLabelPosition=bottom;labelPosition=center;align=center;html=1;outlineConnect=0;fillColor=#CCCCCC;strokeColor=#6881B3;gradientColor=none;gradientDirection=north;strokeWidth=2;shape=mxgraph.networks.virtual_server;fontSize=25;" parent="1" vertex="1">
          <mxGeometry x="80" y="80" width="110" height="120" as="geometry" />
        </mxCell>
        <mxCell id="3UDE3XpyQAjiO2V0nQBB-48" value="" style="fontColor=#0066CC;verticalAlign=top;verticalLabelPosition=bottom;labelPosition=center;align=center;html=1;outlineConnect=0;fillColor=#CCCCCC;strokeColor=#6881B3;gradientColor=none;gradientDirection=north;strokeWidth=2;shape=mxgraph.networks.virtual_server;fontSize=20;" parent="1" vertex="1">
          <mxGeometry x="460" y="271" width="110" height="120" as="geometry" />
        </mxCell>
        <mxCell id="3UDE3XpyQAjiO2V0nQBB-49" value="" style="fontColor=#0066CC;verticalAlign=top;verticalLabelPosition=bottom;labelPosition=center;align=center;html=1;outlineConnect=0;fillColor=#CCCCCC;strokeColor=#6881B3;gradientColor=none;gradientDirection=north;strokeWidth=2;shape=mxgraph.networks.virtual_server;fontSize=25;" parent="1" vertex="1">
          <mxGeometry x="80" y="270" width="110" height="120" as="geometry" />
        </mxCell>
        <mxCell id="3UDE3XpyQAjiO2V0nQBB-53" value="Docker" style="text;html=1;align=center;verticalAlign=middle;resizable=0;points=[];autosize=1;strokeColor=none;fillColor=none;fontSize=25;fontColor=#006680;" parent="1" vertex="1">
          <mxGeometry x="200" y="80" width="100" height="40" as="geometry" />
        </mxCell>
        <mxCell id="3UDE3XpyQAjiO2V0nQBB-54" value="10.10.1.11" style="text;html=1;align=center;verticalAlign=middle;resizable=0;points=[];autosize=1;strokeColor=none;fillColor=none;fontSize=25;fontColor=#006680;" parent="1" vertex="1">
          <mxGeometry x="200" y="120" width="140" height="40" as="geometry" />
        </mxCell>
        <mxCell id="3UDE3XpyQAjiO2V0nQBB-56" value="Puffer panel" style="text;html=1;align=center;verticalAlign=middle;resizable=0;points=[];autosize=1;strokeColor=none;fillColor=none;fontSize=25;fontColor=#006680;" parent="1" vertex="1">
          <mxGeometry x="200" y="275" width="160" height="40" as="geometry" />
        </mxCell>
        <mxCell id="3UDE3XpyQAjiO2V0nQBB-57" value="10.10.12" style="text;html=1;align=center;verticalAlign=middle;resizable=0;points=[];autosize=1;strokeColor=none;fillColor=none;fontSize=25;fontColor=#006680;" parent="1" vertex="1">
          <mxGeometry x="200" y="311" width="120" height="40" as="geometry" />
        </mxCell>
        <mxCell id="3UDE3XpyQAjiO2V0nQBB-58" value="Home assistant" style="text;html=1;align=center;verticalAlign=middle;resizable=0;points=[];autosize=1;strokeColor=none;fillColor=none;fontSize=25;fontColor=#006680;" parent="1" vertex="1">
          <mxGeometry x="580" y="270" width="200" height="40" as="geometry" />
        </mxCell>
        <mxCell id="3UDE3XpyQAjiO2V0nQBB-59" value="10.10.1.5&lt;br&gt;10.10.2.5" style="text;html=1;align=center;verticalAlign=middle;resizable=0;points=[];autosize=1;strokeColor=none;fillColor=none;fontSize=25;fontColor=#006680;" parent="1" vertex="1">
          <mxGeometry x="580" y="300" width="130" height="70" as="geometry" />
        </mxCell>
        <mxCell id="3UDE3XpyQAjiO2V0nQBB-62" value="" style="endArrow=none;dashed=1;html=1;rounded=0;fontSize=25;fontColor=#006680;strokeWidth=2;" parent="1" source="3UDE3XpyQAjiO2V0nQBB-44" target="3UDE3XpyQAjiO2V0nQBB-64" edge="1">
          <mxGeometry width="50" height="50" relative="1" as="geometry">
            <mxPoint x="712.5" y="360" as="sourcePoint" />
            <mxPoint x="461.5" y="50" as="targetPoint" />
          </mxGeometry>
        </mxCell>
        <mxCell id="3UDE3XpyQAjiO2V0nQBB-65" value="USB Passthrough" style="edgeLabel;html=1;align=center;verticalAlign=middle;resizable=0;points=[];fontSize=25;fontColor=#006680;rotation=-90;" parent="3UDE3XpyQAjiO2V0nQBB-62" vertex="1" connectable="0">
          <mxGeometry x="0.097" relative="1" as="geometry">
            <mxPoint y="17" as="offset" />
          </mxGeometry>
        </mxCell>
        <mxCell id="3UDE3XpyQAjiO2V0nQBB-63" value="IoT Zigbee&lt;br&gt;Network" style="text;html=1;align=center;verticalAlign=middle;resizable=0;points=[];autosize=1;strokeColor=none;fillColor=none;fontSize=25;fontColor=#006680;" parent="1" vertex="1">
          <mxGeometry x="190" y="-180" width="140" height="70" as="geometry" />
        </mxCell>
        <mxCell id="3UDE3XpyQAjiO2V0nQBB-64" value="" style="fontColor=#0066CC;verticalAlign=top;verticalLabelPosition=bottom;labelPosition=center;align=center;html=1;outlineConnect=0;fillColor=#CCCCCC;strokeColor=#6881B3;gradientColor=none;gradientDirection=north;strokeWidth=2;shape=mxgraph.networks.wireless_modem;fontSize=25;" parent="1" vertex="1">
          <mxGeometry x="80" y="-222.5" width="100" height="85" as="geometry" />
        </mxCell>
        <mxCell id="3UDE3XpyQAjiO2V0nQBB-68" value="Home automation" style="text;html=1;align=center;verticalAlign=middle;resizable=0;points=[];autosize=1;strokeColor=none;fillColor=none;fontSize=25;fontColor=#006680;" parent="1" vertex="1">
          <mxGeometry x="580" y="360" width="220" height="40" as="geometry" />
        </mxCell>
        <mxCell id="3UDE3XpyQAjiO2V0nQBB-69" value="Game server" style="text;html=1;align=center;verticalAlign=middle;resizable=0;points=[];autosize=1;strokeColor=none;fillColor=none;fontSize=25;fontColor=#006680;" parent="1" vertex="1">
          <mxGeometry x="200" y="345" width="170" height="40" as="geometry" />
        </mxCell>
        <mxCell id="RXIOiblAcPPjJZq2zz8D-2" value="&lt;div style=&quot;text-align: left;&quot;&gt;&lt;span style=&quot;background-color: initial;&quot;&gt;- Wireguard&lt;/span&gt;&lt;/div&gt;&lt;div style=&quot;text-align: left;&quot;&gt;&lt;span style=&quot;background-color: initial;&quot;&gt;- Nginx Homepage&lt;/span&gt;&lt;/div&gt;&lt;div style=&quot;text-align: left;&quot;&gt;- Zigbee2MQTT&lt;/div&gt;" style="text;html=1;align=center;verticalAlign=middle;resizable=0;points=[];autosize=1;strokeColor=none;fillColor=none;fontColor=#006680;fontSize=25;" parent="1" vertex="1">
          <mxGeometry x="200" y="150" width="230" height="100" as="geometry" />
        </mxCell>
        <mxCell id="RXIOiblAcPPjJZq2zz8D-4" value="PoE" style="text;html=1;align=center;verticalAlign=middle;resizable=0;points=[];autosize=1;strokeColor=none;fillColor=none;fontSize=25;fontColor=#006680;" parent="1" vertex="1">
          <mxGeometry x="1400" y="570" width="70" height="40" as="geometry" />
        </mxCell>
        <mxCell id="XeH98ZiALGZGQq995bN6-1" style="edgeStyle=orthogonalEdgeStyle;rounded=0;orthogonalLoop=1;jettySize=auto;html=1;exitX=0.5;exitY=1;exitDx=0;exitDy=0;" edge="1" parent="1" source="7c3789c024ecab99-79" target="7c3789c024ecab99-79">
          <mxGeometry relative="1" as="geometry" />
        </mxCell>
        <mxCell id="XeH98ZiALGZGQq995bN6-4" value="" style="fontColor=#0066CC;verticalAlign=top;verticalLabelPosition=bottom;labelPosition=center;align=center;html=1;outlineConnect=0;fillColor=#CCCCCC;strokeColor=#6881B3;gradientColor=none;gradientDirection=north;strokeWidth=2;shape=mxgraph.networks.server;fontSize=25;" vertex="1" parent="1">
          <mxGeometry x="2420" y="680" width="90" height="100" as="geometry" />
        </mxCell>
        <mxCell id="XeH98ZiALGZGQq995bN6-7" value="&lt;span style=&quot;color: rgb(147, 209, 148);&quot;&gt;LAN&amp;nbsp;&lt;/span&gt;always untagged&lt;br&gt;&lt;font color=&quot;#93d194&quot;&gt;LAN (VLAN1)&lt;/font&gt;&lt;font color=&quot;#006680&quot;&gt;&amp;nbsp;DHCP 10.10.1.100-200&lt;br&gt;&lt;/font&gt;&lt;font color=&quot;#ff6662&quot;&gt;IoT (VLAN2)&lt;/font&gt;&lt;font color=&quot;#006680&quot;&gt;&amp;nbsp;DHCP 10.10.2.200-250&lt;br&gt;(mostly reserved for fixed/static IP use)&lt;/font&gt;&lt;font color=&quot;#006680&quot;&gt;&lt;br&gt;&lt;/font&gt;" style="text;html=1;align=center;verticalAlign=middle;resizable=0;points=[];autosize=1;strokeColor=none;fillColor=none;fontSize=25;fontColor=#006680;" vertex="1" parent="1">
          <mxGeometry x="1105" y="1040" width="460" height="130" as="geometry" />
        </mxCell>
        <mxCell id="XeH98ZiALGZGQq995bN6-16" value="Docker" style="text;html=1;align=center;verticalAlign=middle;resizable=0;points=[];autosize=1;strokeColor=none;fillColor=none;fontSize=25;fontColor=#006680;" vertex="1" parent="1">
          <mxGeometry x="2240" y="900" width="100" height="40" as="geometry" />
        </mxCell>
        <mxCell id="XeH98ZiALGZGQq995bN6-17" value="10.10.1.21" style="text;html=1;align=center;verticalAlign=middle;resizable=0;points=[];autosize=1;strokeColor=none;fillColor=none;fontSize=25;fontColor=#006680;" vertex="1" parent="1">
          <mxGeometry x="2250" y="930" width="140" height="40" as="geometry" />
        </mxCell>
        <mxCell id="XeH98ZiALGZGQq995bN6-18" value="&lt;div style=&quot;text-align: left;&quot;&gt;&lt;span style=&quot;background-color: initial;&quot;&gt;- Wireguard&lt;/span&gt;&lt;/div&gt;&lt;div style=&quot;text-align: left;&quot;&gt;&lt;span style=&quot;background-color: initial;&quot;&gt;- Nginx Homepage&lt;/span&gt;&lt;/div&gt;&lt;div style=&quot;text-align: left;&quot;&gt;- Zigbee2MQTT&lt;/div&gt;" style="text;html=1;align=center;verticalAlign=middle;resizable=0;points=[];autosize=1;strokeColor=none;fillColor=none;fontColor=#006680;fontSize=25;" vertex="1" parent="1">
          <mxGeometry x="2240" y="960" width="230" height="100" as="geometry" />
        </mxCell>
        <mxCell id="XeH98ZiALGZGQq995bN6-19" value="" style="rounded=1;whiteSpace=wrap;html=1;fillColor=none;" vertex="1" parent="1">
          <mxGeometry x="1080" y="1020" width="530" height="340" as="geometry" />
        </mxCell>
        <mxCell id="XeH98ZiALGZGQq995bN6-21" value="OpnSense" style="text;html=1;align=center;verticalAlign=middle;resizable=0;points=[];autosize=1;strokeColor=none;fillColor=none;fontSize=25;fontColor=#006680;" vertex="1" parent="1">
          <mxGeometry x="1810" y="680" width="140" height="40" as="geometry" />
        </mxCell>
        <mxCell id="XeH98ZiALGZGQq995bN6-22" value="&lt;div style=&quot;text-align: left;&quot;&gt;Public IP: 85.xx.xx.xx&lt;br&gt;VLAN1: 10.10.1.1&lt;br&gt;VLAN2: 10.10.2.1&lt;/div&gt;" style="text;html=1;align=center;verticalAlign=middle;resizable=0;points=[];autosize=1;strokeColor=none;fillColor=none;fontColor=#006680;fontSize=25;" vertex="1" parent="1">
          <mxGeometry x="1820" y="710" width="260" height="100" as="geometry" />
        </mxCell>
        <mxCell id="XeH98ZiALGZGQq995bN6-23" value="" style="fontColor=#0066CC;verticalAlign=top;verticalLabelPosition=bottom;labelPosition=center;align=center;html=1;outlineConnect=0;fillColor=#CCCCCC;strokeColor=#6881B3;gradientColor=none;gradientDirection=north;strokeWidth=2;shape=mxgraph.networks.virtual_server;fontSize=20;" vertex="1" parent="1">
          <mxGeometry x="1700" y="885" width="110" height="120" as="geometry" />
        </mxCell>
        <mxCell id="XeH98ZiALGZGQq995bN6-24" value="OpnSense 2" style="text;html=1;align=center;verticalAlign=middle;resizable=0;points=[];autosize=1;strokeColor=none;fillColor=none;fontSize=25;fontColor=#006680;" vertex="1" parent="1">
          <mxGeometry x="1810" y="885" width="160" height="40" as="geometry" />
        </mxCell>
        <mxCell id="XeH98ZiALGZGQq995bN6-25" value="&lt;div style=&quot;text-align: left;&quot;&gt;Public IP: 85.xx.xx.yy&lt;br&gt;VLAN100: 10.10.100.1&lt;br&gt;&lt;br&gt;&lt;/div&gt;" style="text;html=1;align=center;verticalAlign=middle;resizable=0;points=[];autosize=1;strokeColor=none;fillColor=none;fontColor=#006680;fontSize=25;" vertex="1" parent="1">
          <mxGeometry x="1820" y="915" width="280" height="100" as="geometry" />
        </mxCell>
        <mxCell id="XeH98ZiALGZGQq995bN6-27" value="&lt;font color=&quot;#0e00d1&quot;&gt;Servers (VLAN100) No DHCP&lt;/font&gt;&lt;br&gt;Only for static IP addresses&lt;br&gt;Only used for servers, server data goes &lt;br&gt;through another public IP address&lt;br&gt;(Not yet implemented into network)" style="text;html=1;align=center;verticalAlign=middle;resizable=0;points=[];autosize=1;strokeColor=none;fillColor=none;fontSize=25;fontColor=#006680;" vertex="1" parent="1">
          <mxGeometry x="1115" y="1175" width="460" height="160" as="geometry" />
        </mxCell>
      </root>
    </mxGraphModel>
  </diagram>
</mxfile>
